<svg width="24" height="24" viewBox="0 0 24 24" fill="none" xmlns="http://www.w3.org/2000/svg">
<circle cx="11.5" cy="6.5" r="4.5" fill="white"/>
<path fill-rule="evenodd" clip-rule="evenodd" d="M3.00002 17.9965C2.99849 17.5514 3.08775 17.1117 3.26104 16.7108C3.80484 15.4979 5.33834 14.8551 6.61082 14.564C7.52853 14.3456 8.45892 14.1997 9.39506 14.1273C11.1282 13.9576 12.8714 13.9576 14.6046 14.1273C15.5407 14.2005 16.471 14.3464 17.3889 14.564C18.6613 14.8551 20.1948 15.4373 20.7386 16.7108C21.0871 17.5281 21.0871 18.477 20.7386 19.2943C20.1948 20.5678 18.6613 21.15 17.3889 21.4289C16.4722 21.6564 15.5415 21.8064 14.6046 21.8777C13.1939 22.0111 11.7767 22.0354 10.363 21.9505C10.0367 21.9505 9.72133 21.9505 9.39506 21.8777C8.46169 21.8073 7.53452 21.6573 6.6217 21.4289C5.33834 21.15 3.81571 20.5678 3.26104 19.2943C3.08864 18.8887 2.99947 18.4453 3.00002 17.9965Z" fill="white"/>
</svg>
