<svg width="60" height="60" viewBox="0 0 60 60" fill="none" xmlns="http://www.w3.org/2000/svg">
<path d="M52.0103 47.2701V35.5918V28.1691C52.0103 25.101 49.5361 22.5278 46.3691 22.5278L39.7381 22.4289V20.2515C40.8268 19.6577 41.7175 18.9649 42.0144 17.8763C42.9052 14.7093 39.7381 10.6515 39.6392 10.4536L38.9464 9.56289L38.2536 10.3546C38.1546 10.5526 35.1856 14.1155 35.8783 17.3814C36.1753 18.5691 36.868 19.5588 38.1546 20.3505V22.5278H31.2268V16.6887C32.3155 16.0948 33.1072 15.3031 33.4041 14.2144C34.2948 11.0474 31.1278 6.98969 31.0289 6.79175L30.3361 6L29.6433 6.79175C29.5443 6.98969 26.5753 10.5526 27.268 13.8186C27.5649 15.0062 28.4557 15.9959 29.7423 16.7876V22.6268H22.6165V20.4495C23.7052 19.8557 24.4969 19.0639 24.7938 17.9753C25.6845 14.8082 22.5175 10.7505 22.4186 10.5526L21.7258 9.66186L21.033 10.4536C20.8351 10.6515 17.866 14.3134 18.5588 17.4804C18.8557 18.668 19.7464 19.6577 20.934 20.4495V22.6268H14.4021C11.334 22.6268 8.76082 25.101 8.76082 28.268V36.0866V47.2701C6.68247 47.468 5 49.2495 5 51.4268V54H55.7711V51.4268C55.7711 49.2495 54.1876 47.468 52.0103 47.2701Z" fill="#566066"/>
<path d="M10.5422 47.2704H50.3278V28.1694C50.3278 25.992 48.5464 24.3096 46.468 24.3096H14.402C12.2247 24.3096 10.5422 26.091 10.5422 28.1694V47.2704Z" fill="#FF7E97" stroke="#FF7E97" stroke-width="0.5" stroke-miterlimit="10"/>
<path d="M6.78146 52.3181H54.0887V51.4274C54.0887 50.0418 53 48.9531 51.6144 48.9531H9.15672C7.77115 48.9531 6.6825 50.0418 6.6825 51.4274V52.3181H6.78146Z" fill="#7BD8D3" stroke="#7BD8D3" stroke-width="0.5" stroke-miterlimit="10"/>
<path d="M42.3112 34.8998C40.9256 34.8998 40.2328 33.9102 39.5401 32.9205C38.8473 31.9308 38.1545 30.9411 36.67 30.9411C35.2844 30.9411 34.5916 31.9308 33.7998 32.9205C33.1071 33.9102 32.4143 34.8998 31.0287 34.8998C29.6431 34.8998 28.9504 33.9102 28.2576 32.9205C27.3669 31.7328 26.773 30.9411 25.3875 30.9411C24.0019 30.9411 23.4081 31.7328 22.5174 32.9205C21.8246 33.9102 21.1318 34.8998 19.7462 34.8998C18.3607 34.8998 17.6679 33.9102 16.9751 32.9205C16.2823 31.9308 15.5895 30.9411 14.105 30.9411C13.0163 30.9411 12.3236 31.5349 11.6308 32.4256L9.75037 34.7019V28.2689C9.75037 25.5968 11.9277 23.4194 14.5999 23.4194H46.27C48.9421 23.4194 51.1194 25.5968 51.1194 28.2689V32.6236L49.5359 31.4359C49.0411 31.139 48.5462 30.9411 47.9524 30.9411C46.4679 30.9411 45.7751 31.9308 45.0823 32.9205C44.3895 33.9102 43.6968 34.8998 42.3112 34.8998Z" fill="#FFEB8B"/>
<path d="M46.27 24.4091C48.3484 24.4091 50.1298 26.0915 50.1298 28.2689V30.7431C49.536 30.3472 48.8432 30.0503 47.9525 30.0503C45.9731 30.0503 45.0824 31.3369 44.2906 32.4256C43.5979 33.4153 43.103 33.9101 42.3113 33.9101C41.4205 33.9101 41.0247 33.3163 40.3319 32.4256C39.5401 31.3369 38.6494 30.0503 36.67 30.0503C34.6906 30.0503 33.7999 31.3369 33.0082 32.4256C32.3154 33.4153 31.8205 33.9101 31.0288 33.9101C30.1381 33.9101 29.7422 33.3163 29.0494 32.4256C28.2576 31.3369 27.3669 30.0503 25.3875 30.0503C23.4082 30.0503 22.5174 31.3369 21.7257 32.4256C21.0329 33.4153 20.5381 33.9101 19.7463 33.9101C18.8556 33.9101 18.4597 33.3163 17.7669 32.4256C16.9752 31.3369 16.0845 30.0503 14.1051 30.0503C12.5216 30.0503 11.5319 30.941 10.8391 31.8317V28.2689C10.8391 26.1905 12.5216 24.4091 14.6989 24.4091H46.27ZM46.27 22.4297H14.5999C11.4329 22.4297 8.76074 25.0029 8.76074 28.2689V31.8317V37.572L12.3236 33.0194C12.9174 32.2276 13.3133 31.9307 14.0061 31.9307C14.8968 31.9307 15.2927 32.4256 16.0845 33.5142C16.8762 34.6029 17.7669 35.8895 19.6473 35.8895C21.5278 35.8895 22.5174 34.6029 23.2102 33.5142C24.002 32.4256 24.3979 31.9307 25.2886 31.9307C26.1793 31.9307 26.5752 32.4256 27.3669 33.5142C28.1587 34.6029 29.0494 35.8895 30.9298 35.8895C32.8102 35.8895 33.7999 34.6029 34.4927 33.5142C35.2844 32.4256 35.6803 31.9307 36.571 31.9307C37.4618 31.9307 37.8576 32.4256 38.6494 33.5142C39.4411 34.6029 40.3319 35.8895 42.2123 35.8895C44.0927 35.8895 45.0824 34.6029 45.7752 33.5142C46.5669 32.4256 46.9628 31.9307 47.8535 31.9307C48.2494 31.9307 48.5463 32.0297 48.8432 32.2276L52.0102 34.5039V30.5452V28.0709C52.0102 25.0029 49.437 22.4297 46.27 22.4297Z" fill="#566066"/>
<path d="M42.3114 34.1074C41.3217 34.1074 40.8269 33.5135 40.1341 32.5239C39.3423 31.4352 38.4516 30.2476 36.6702 30.2476C34.8887 30.2476 33.998 31.4352 33.2062 32.5239C32.5135 33.5135 32.0186 34.1074 31.0289 34.1074C30.0392 34.1074 29.5444 33.5135 28.8516 32.5239C28.0599 31.4352 27.1691 30.2476 25.3877 30.2476C23.6062 30.2476 22.7155 31.4352 21.9238 32.5239C21.231 33.5135 20.7361 34.1074 19.7465 34.1074C18.7568 34.1074 18.2619 33.5135 17.5691 32.5239C16.7774 31.4352 15.8867 30.2476 14.1052 30.2476C12.6207 30.2476 11.73 31.1383 11.0372 31.93L10.6413 32.5239V28.2682C10.6413 25.9919 12.4227 24.2104 14.699 24.2104H46.3691C48.6454 24.2104 50.4269 25.9919 50.4269 28.2682V31.2373L50.031 30.9403C49.4372 30.5445 48.7444 30.2476 48.0516 30.2476C46.2702 30.2476 45.3794 31.4352 44.5877 32.5239C43.697 33.5135 43.2021 34.1074 42.3114 34.1074Z" fill="#FFEB8B"/>
<path d="M46.27 24.4079C48.3484 24.4079 50.1298 26.0904 50.1298 28.2677V30.742C49.536 30.3461 48.8432 30.0492 47.9525 30.0492C45.9731 30.0492 45.0824 31.3358 44.2907 32.4244C43.5979 33.4141 43.103 33.909 42.3113 33.909C41.4206 33.909 41.0247 33.3151 40.3319 32.4244C39.5401 31.3358 38.6494 30.0492 36.67 30.0492C34.6907 30.0492 33.7999 31.3358 33.0082 32.4244C32.3154 33.4141 31.8206 33.909 31.0288 33.909C30.1381 33.909 29.7422 33.3151 29.0494 32.4244C28.2577 31.3358 27.3669 30.0492 25.3876 30.0492C23.4082 30.0492 22.5175 31.3358 21.7257 32.4244C21.0329 33.4141 20.5381 33.909 19.7463 33.909C18.8556 33.909 18.4597 33.3151 17.7669 32.4244C16.9752 31.3358 16.0845 30.0492 14.1051 30.0492C12.5216 30.0492 11.5319 30.9399 10.8391 31.8306V28.2677C10.8391 26.1894 12.5216 24.4079 14.6989 24.4079H46.27ZM46.27 23.9131H14.5999C12.2247 23.9131 10.2453 25.8925 10.2453 28.2677V31.8306V33.3151L11.136 32.1275C11.8288 31.2368 12.6206 30.544 14.0061 30.544C15.6886 30.544 16.5793 31.7316 17.2721 32.7213C17.9649 33.6121 18.5587 34.4038 19.6474 34.4038C20.835 34.4038 21.3298 33.6121 22.0226 32.7213C22.7154 31.7316 23.6061 30.544 25.2886 30.544C26.9711 30.544 27.8618 31.7316 28.5546 32.7213C29.2474 33.6121 29.8412 34.4038 30.9298 34.4038C32.1175 34.4038 32.6123 33.6121 33.3051 32.7213C33.9979 31.7316 34.8886 30.544 36.5711 30.544C38.2535 30.544 39.1443 31.7316 39.8371 32.7213C40.5298 33.6121 41.1236 34.4038 42.2123 34.4038C43.3999 34.4038 43.8948 33.6121 44.5876 32.7213C45.2804 31.7316 46.1711 30.544 47.8535 30.544C48.5463 30.544 49.1401 30.742 49.734 31.1378L50.5257 31.7316V30.742V28.2677C50.5257 25.8925 48.6453 23.9131 46.27 23.9131Z" fill="#FFEB8B"/>
<path d="M21.6268 12.5322C20.835 13.7199 19.9443 15.6003 20.2412 17.0848C20.4392 17.8766 20.835 18.3714 21.6268 18.8662C22.4185 18.4704 22.8144 18.0745 23.0124 17.3817C23.5072 15.9961 22.5175 13.9178 21.6268 12.5322Z" fill="#FF7E97" stroke="#FF7E97" stroke-miterlimit="10"/>
<path d="M30.3361 8.87012C29.5443 10.0577 28.6536 11.9382 28.9505 13.4227C29.1484 14.2144 29.5443 14.7093 30.3361 15.2041C31.1278 14.8083 31.5237 14.4124 31.7216 13.7196C32.2165 12.334 31.2268 10.2557 30.3361 8.87012Z" fill="#FFEB8B" stroke="#FFEB8B" stroke-miterlimit="10"/>
<path d="M39.0453 12.5322C38.2536 13.7199 37.3628 15.6003 37.6597 17.0848C37.8577 17.8766 38.2536 18.3714 39.0453 18.8662C39.8371 18.4704 40.2329 17.9755 40.4309 17.3817C40.9257 15.9961 39.8371 13.9178 39.0453 12.5322Z" fill="#FF7E97" stroke="#FF7E97" stroke-miterlimit="10"/>
</svg>
